<svg aria-hidden="true" style="position:absolute;width:0;height:0;overflow:hidden" xmlns="http://www.w3.org/2000/svg">
<defs>
<symbol id="icon-swipe-one-svg" viewBox="0 0 39 32">
<path d="M18.72 20.107c-0.513 0.284-1.009 0.603-1.483 0.956 1.818 0.861 3.762 1.373 5.746 1.512 1.982 0.157 3.969-0.226 5.777-1.111 0.832-0.412 1.642-0.872 2.427-1.378 2.074-1.178 4.377-2.601 5.777-2.69 0.306-0.009 0.61 0.036 0.902 0.133 0.137 0.015 0.27 0.059 0.391 0.13s0.228 0.166 0.314 0.282l0.239 0.333-0.28 0.345c-0.353 0.378-0.861 0.878-1.369 1.334s-1.037 0.8-1.286 1.045c-0.944 0.756-1.877 1.467-2.894 2.145s-1.867 1.234-2.904 1.823c-0.539 0.289-1.13 0.578-1.722 0.878s-1.172 0.5-1.794 0.711c-1.043 0.388-2.142 0.573-3.246 0.545-1.68 0.122-3.288 0.211-4.926 0.289s-3.288 0.089-4.968 0.089c-1.028 0.128-2.015 0.508-2.883 1.111-1.428 0.865-2.766 1.889-3.993 3.057l-0.322 0.356-0.311-0.345-5.912-6.091 0.197-0.378c1.209-1.818 2.529-3.549 3.951-5.18 0.906-1.129 1.991-2.077 3.205-2.801 1.921-0.512 3.891-0.781 5.87-0.8 0.539 0 1.037 0 1.483-0.078 0.43-0.005 0.859-0.035 1.286-0.089 0.425 0 0.861-0.078 1.286-0.167 0.747-0.122 1.493-0.211 2.23-0.378s1.452-0.256 2.23-0.422l0.425-0.078c0.788-0.167 1.566-0.333 2.313-0.422 0.223-0.002 0.445-0.028 0.664-0.078h1.016l0.114 0.422c0.042 0.205 0.042 0.417 0 0.622-0.029 0.222-0.096 0.437-0.197 0.634-0.218 0.455-0.509 0.865-0.861 1.212-0.425 0.363-0.897 0.659-1.4 0.878-0.62 0.275-1.262 0.487-1.919 0.634-0.197 0.078-0.394 0.122-0.622 0.2-0.862 0.243-1.711 0.54-2.541 0.889l-0.010-0.078zM17.932 5.357h-3.412c0.017 0.184 0.079 0.36 0.182 0.508s0.24 0.265 0.399 0.336c0.362 0.161 0.749 0.244 1.141 0.245 0.403 0.051 0.809-0.069 1.13-0.333 0.272-0.169 0.478-0.437 0.581-0.756h-0.021zM19.104 0c-4.584 0-8.359 2.301-8.359 5.113s3.775 5.191 8.359 5.191c4.584 0 8.297-2.301 8.297-5.191s-3.682-5.113-8.297-5.113zM14.52 4.902h3.516c0.211-0.517 0.514-0.985 0.892-1.378 0.599-0.469 1.334-0.694 2.074-0.634 0.972-0.087 1.941 0.197 2.738 0.8 0.318 0.321 0.526 0.748 0.591 1.212h1.4v0.456h-1.421c-0.046 0.424-0.215 0.821-0.483 1.136s-0.622 0.532-1.011 0.62c-0.647 0.197-1.319 0.284-1.991 0.256v-0.789c0.489 0.008 0.977-0.052 1.452-0.178 0.233-0.058 0.446-0.188 0.612-0.374s0.277-0.419 0.322-0.671h-3.941c-0.169 0.596-0.539 1.103-1.037 1.423-0.589 0.337-1.252 0.498-1.919 0.467-0.692 0.014-1.377-0.158-1.991-0.5-0.247-0.124-0.457-0.321-0.605-0.566s-0.23-0.531-0.235-0.823h-1.037v-0.456h0.933c0.035-0.281 0.131-0.549 0.28-0.783s0.349-0.426 0.581-0.562c0.608-0.36 1.297-0.533 1.991-0.5v0.8c-0.316 0.015-0.63 0.071-0.933 0.167-0.508 0.167-0.778 0.5-0.778 0.878zM19.083 10.97c-4.252 0-7.695-1.923-8.297-4.446-0.048 0.219-0.076 0.442-0.083 0.667 0 2.845 3.754 5.157 8.359 5.157s8.297-2.312 8.297-5.157c-0.009-0.224-0.033-0.447-0.073-0.667-0.55 2.512-4.034 4.446-8.297 4.446h0.093zM19.083 13.071c-4.252 0-7.695-1.978-8.297-4.446-0.048 0.223-0.076 0.45-0.083 0.678 0.042 2.801 3.817 5.146 8.401 5.146s8.297-2.301 8.297-5.146c-0.009-0.228-0.033-0.454-0.073-0.678-0.55 2.512-4.034 4.446-8.297 4.446h0.052zM21.313 3.724c-0.489-0.043-0.976 0.107-1.369 0.422-0.236 0.2-0.421 0.459-0.539 0.756h3.827c0-0.5-0.353-0.845-0.933-1.011-0.315-0.124-0.65-0.181-0.985-0.167z"></path>
</symbol>
<symbol id="icon-swipe-three-svg" viewBox="0 0 39 32">
<path d="M19.811 27.311c1.328-2.025-0.783-2.95-2.127-4.928-0.592-0.872 0.326-2.434 0.828-3.888 0.141-0.387 0.241-0.788 0.297-1.196v-0.067c0.131-1.714-1.772-3.030-2.224-4.128s1.497-2.936 1.657-4.141c0.108-0.815-1.576-4.096-2.476-5.313-1.394-1.873-3.949-4.072-8.091-3.536-6.999 0.907-10.376 8.982-5.083 17.346 4.613 7.296 13.618 12.825 15.849 14.118-0.754-2.296 0.097-2.329 1.371-4.266z"></path>
<path d="M21.182 31.906c1.711-1.127 9.757-6.622 13.868-12.885 4.615-7.029 5.385-14.343-0.518-17.716s-11.456 0.435-13.104 3.953c-0.238 0.487-0.298 1.045-0.169 1.574 0.297 1.132 0.651 1.896 0.493 2.614-0.207 0.941-2.211 2.805-1.853 3.941s2.355 2.455 2.080 4.141c-0.076 0.427-0.214 0.841-0.41 1.226-0.633 1.404-1.673 2.338-1.159 3.265 1.168 2.105 3.222 3.426 1.695 5.646-1.306 1.903-2.283 1.749-1.729 4.112 0.059 0.041 0.113 0.083 0.162 0.115 0.094 0.067 0.205 0.104 0.32 0.107s0.227-0.030 0.324-0.093z"></path>
</symbol>
<symbol id="icon-swipe-two-svg" viewBox="0 0 32 32">
<path d="M30.25 13.258l-0.598-3.005c-0.037-0.184-0.216-0.304-0.4-0.268s-0.304 0.216-0.267 0.4l0.437 2.199-18.833-12.585-0.378 0.566 18.832 12.585-2.199 0.437c-0.184 0.037-0.304 0.216-0.267 0.4s0.216 0.304 0.4 0.268l3.005-0.598c0.184-0.037 0.304-0.216 0.267-0.4zM3.776 6.103c-0.376 0-0.681 0.305-0.681 0.681v22.014h-2.414c-0.376 0-0.681 0.305-0.681 0.681v1.733c0 0.376 0.305 0.681 0.681 0.681h30.618c0.376 0 0.681-0.305 0.681-0.681v-1.733c0-0.376-0.305-0.681-0.681-0.681h-2.414v-8.604c0-0.376-0.305-0.681-0.681-0.681h-5.86c-0.376 0-0.681 0.305-0.681 0.681v8.604h-2.063v-15.825c0-0.376-0.305-0.681-0.681-0.681h-5.86c-0.376 0-0.681 0.305-0.681 0.681v15.825h-2.063v-22.014c0-0.376-0.305-0.681-0.681-0.681h-5.86z"></path>
</symbol>
<symbol id="icon-arrow-left" viewBox="0 0 64 32">
<path d="M0.586 17.475c-0.781-0.781-0.781-2.047 0-2.828l12.728-12.728c0.781-0.781 2.047-0.781 2.828 0s0.781 2.047 0 2.828l-11.314 11.314 11.314 11.314c0.781 0.781 0.781 2.047 0 2.829s-2.047 0.781-2.828 0l-12.728-12.728zM64 18.061h-62v-4h62v4z"></path>
</symbol>
<symbol id="icon-arrow-right" viewBox="0 0 64 32">
<path d="M63.414 17.475c0.781-0.781 0.781-2.047 0-2.828l-12.728-12.728c-0.781-0.781-2.047-0.781-2.828 0s-0.781 2.047 0 2.828l11.314 11.314-11.314 11.314c-0.781 0.781-0.781 2.047 0 2.829s2.047 0.781 2.828 0l12.728-12.728zM0 18.061h62v-4h-62v4z"></path>
</symbol>
</svg>